<svg fill="#000000" height="200px" width="200px" version="1.1" id="Capa_1" xmlns="http://www.w3.org/2000/svg" xmlns:xlink="http://www.w3.org/1999/xlink" viewBox="-81.04 -81.04 486.23 486.23" xml:space="preserve" transform="matrix(1, 0, 0, -1, 0, 0)"><g id="SVGRepo_bgCarrier" stroke-width="0"></g><g id="SVGRepo_tracerCarrier" stroke-linecap="round" stroke-linejoin="round"></g><g id="SVGRepo_iconCarrier"> <path d="M230.645,324.146H25.365c-4.418,0-8-3.582-8-8V69.811c0-4.418,3.582-8,8-8h205.279c4.418,0,8,3.582,8,8v15.766h20.236 c4.418,0,8,3.582,8,8s-3.582,8-8,8h-20.236v20.614h10.01c4.418,0,8,3.582,8,8s-3.582,8-8,8h-10.01v20.615h20.236 c4.418,0,8,3.582,8,8s-3.582,8-8,8h-20.236v20.613h10.01c4.418,0,8,3.582,8,8s-3.582,8-8,8h-10.01v104.727 C238.645,320.564,235.063,324.146,230.645,324.146z M33.365,308.146h189.279V77.811H33.365V308.146z M166.297,293.237 c-20.576,0-37.316-16.739-37.316-37.314s16.74-37.314,37.316-37.314c20.574,0,37.313,16.739,37.313,37.314 S186.871,293.237,166.297,293.237z M166.297,234.609c-11.754,0-21.316,9.562-21.316,21.314s9.562,21.314,21.316,21.314 c11.752,0,21.313-9.562,21.313-21.314S178.049,234.609,166.297,234.609z M298.781,262.335h-36.605c-4.418,0-8-3.582-8-8s3.582-8,8-8 h28.605V16H101.502v25.307c0,4.418-3.582,8-8,8s-8-3.582-8-8V8c0-4.418,3.582-8,8-8h205.278c4.418,0,8,3.582,8,8v246.335 C306.781,258.753,303.198,262.335,298.781,262.335z M105.182,235.255H66.215c-4.418,0-8-3.582-8-8s3.582-8,8-8h38.967 c4.418,0,8,3.582,8,8S109.6,235.255,105.182,235.255z M189.795,199.842H66.215c-4.418,0-8-3.582-8-8s3.582-8,8-8h123.58 c4.418,0,8,3.582,8,8S194.213,199.842,189.795,199.842z M189.795,164.429H66.215c-4.418,0-8-3.582-8-8s3.582-8,8-8h123.58 c4.418,0,8,3.582,8,8S194.213,164.429,189.795,164.429z M105.182,129.016H66.215c-4.418,0-8-3.582-8-8s3.582-8,8-8h38.967 c4.418,0,8,3.582,8,8S109.6,129.016,105.182,129.016z"></path> </g></svg>